HIERARCHY
ROOT Hips
{
	OFFSET 0.000000 0.000000 0.000000
	CHANNELS 6 Xposition Yposition Zposition Xrotation Yrotation Zrotation
	JOINT Chest
	{
		OFFSET 0.000000 9.585900 0.002600
		CHANNELS 3 Xrotation Yrotation Zrotation
		JOINT Chest2
		{
			OFFSET 0.000000 9.601200 -0.005300
			CHANNELS 3 Xrotation Yrotation Zrotation
			JOINT Chest3
			{
				OFFSET 0.000000 9.561800 0.000000
				CHANNELS 3 Xrotation Yrotation Zrotation
				JOINT Chest4
				{
					OFFSET 0.000000 9.552100 0.000000
					CHANNELS 3 Xrotation Yrotation Zrotation
					JOINT Neck
					{
						OFFSET 0.000000 14.453000 0.000000
						CHANNELS 3 Xrotation Yrotation Zrotation
						JOINT Head
						{
							OFFSET 0.000000 8.936500 -0.011300
							CHANNELS 3 Xrotation Yrotation Zrotation
							End Site
							{
								OFFSET 0.000000 0.000000 0.000000
							}
						}
					}
					JOINT RightCollar
					{
						OFFSET -2.921100 9.558500 0.000000
						CHANNELS 3 Xrotation Yrotation Zrotation
						JOINT RightShoulder
						{
							OFFSET -13.519700 0.000000 0.000000
							CHANNELS 3 Xrotation Yrotation Zrotation
							JOINT RightElbow
							{
								OFFSET 0.000000 -29.696600 0.000000
								CHANNELS 3 Xrotation Yrotation Zrotation
								JOINT RightWrist
								{
									OFFSET 0.000000 -24.004700 0.000000
									CHANNELS 3 Xrotation Yrotation Zrotation
									End Site
									{
										OFFSET 0.000000 0.000000 0.000000
									}
								}
							}
						}
					}
					JOINT LeftCollar
					{
						OFFSET 2.921100 9.558500 0.000000
						CHANNELS 3 Xrotation Yrotation Zrotation
						JOINT LeftShoulder
						{
							OFFSET 13.519700 0.000000 0.000000
							CHANNELS 3 Xrotation Yrotation Zrotation
							JOINT LeftElbow
							{
								OFFSET 0.000000 -29.696600 0.000000
								CHANNELS 3 Xrotation Yrotation Zrotation
								JOINT LeftWrist
								{
									OFFSET 0.000000 -24.004700 0.000000
									CHANNELS 3 Xrotation Yrotation Zrotation
									End Site
									{
										OFFSET 0.000000 0.000000 0.000000
									}
								}
							}
						}
					}
				}
			}
		}
	}
	JOINT RightHip
	{
		OFFSET -7.771700 -0.012900 -0.001300
		CHANNELS 3 Xrotation Yrotation Zrotation
		JOINT RightKnee
		{
			OFFSET 0.000000 -40.869801 0.001200
			CHANNELS 3 Xrotation Yrotation Zrotation
			JOINT RightAnkle
			{
				OFFSET 0.000000 -39.717899 0.002100
				CHANNELS 3 Xrotation Yrotation Zrotation
				JOINT RightToe
				{
					OFFSET 0.000000 -4.965400 11.033500
					CHANNELS 3 Xrotation Yrotation Zrotation
					End Site
					{
						OFFSET 0.000000 0.000000 0.000000
					}
				}
			}
		}
	}
	JOINT LeftHip
	{
		OFFSET 7.771700 -0.012900 -0.001300
		CHANNELS 3 Xrotation Yrotation Zrotation
		JOINT LeftKnee
		{
			OFFSET 0.000000 -40.869801 0.001200
			CHANNELS 3 Xrotation Yrotation Zrotation
			JOINT LeftAnkle
			{
				OFFSET 0.000000 -39.717899 0.002100
				CHANNELS 3 Xrotation Yrotation Zrotation
				JOINT LeftToe
				{
					OFFSET 0.000000 -4.965400 11.033500
					CHANNELS 3 Xrotation Yrotation Zrotation
					End Site
					{
						OFFSET 0.000000 0.000000 0.000000
					}
				}
			}
		}
	}
}
MOTION
Frames: 12
Frame Time: 0.032
0.0 0.0 0.0 -148.805916 -1.762941 -179.644862 19.764927 0.743431 3.608644 3.194303 1.210218 1.178037 4.902676 0.147743 0.867683 16.651281 1.107915 2.173093 14.202905 -0.161763 -3.789349 -4.885163 3.489721 -4.586554 -4.224683 3.780120 -3.275535 -23.462456 28.174074 -13.236650 -92.732399 26.203187 44.419049 -11.669995 -0.063852 -36.471871 -1.177597 -6.736433 -3.035208 -13.458381 4.271035 -2.238738 -76.555240 7.210603 -18.231885 -22.522451 10.809118 22.981584 -45.905657 5.099918 -1.469740 73.292424 -2.559145 -3.783965 15.827322 5.241181 7.365826 -1.759072 0.025328 0.632822 -42.319251 -3.393359 -4.863585 78.668603 5.568544 0.140280 -13.068730 -9.362283 -2.447281 -0.883044 -0.013023 -0.391344
0.0 0.0 0.0 -148.811066 -1.768232 -179.643619 19.776633 0.746108 3.623344 3.173700 1.205006 1.160393 4.887487 0.138343 0.850246 16.635404 1.095341 2.161859 14.196788 -0.178525 -3.797060 -4.884167 3.487988 -4.574698 -4.268089 3.758984 -3.286074 -23.486353 28.172652 -13.210955 -92.991660 26.188629 44.520358 -11.693062 -0.006038 -36.536212 -1.214697 -6.743050 -3.055755 -13.500567 4.308331 -2.245421 -76.723194 7.233973 -18.196647 -22.556903 10.810889 23.063189 -45.916616 5.099736 -1.476723 73.291222 -2.548837 -3.778066 15.860251 5.267017 7.378472 -1.758278 0.023542 0.645066 -42.324708 -3.396199 -4.900503 78.658952 5.553998 0.151992 -13.073869 -9.388267 -2.456845 -0.879096 -0.013128 -0.386570
0.0 0.0 0.0 -148.805670 -1.768683 -179.615028 19.773961 0.747144 3.600797 3.162034 1.227070 1.174575 4.885690 0.154288 0.868314 16.624557 1.114229 2.184579 14.194831 -0.167786 -3.830742 -4.897033 3.489552 -4.603910 -4.280553 3.769089 -3.318113 -23.507170 28.166628 -13.245275 -93.343633 26.134206 44.622121 -11.703218 0.112944 -36.526977 -1.234879 -6.716465 -3.040426 -13.525432 4.390020 -2.187395 -76.967305 7.299150 -18.184037 -22.591892 10.848353 23.111721 -45.919334 5.134818 -1.498295 73.276701 -2.562200 -3.795005 15.879162 5.286948 7.355023 -1.771850 0.031865 0.617358 -42.327690 -3.383163 -4.907997 78.636651 5.549950 0.139873 -13.087797 -9.403249 -2.448320 -0.888197 -0.005282 -0.395863
0.0 0.0 0.0 -148.828757 -1.780420 -179.596163 19.786201 0.767554 3.613103 3.138519 1.265707 1.168521 4.868155 0.184905 0.865726 16.608889 1.142846 2.184307 14.186621 -0.146456 -3.840207 -4.917477 3.507154 -4.598226 -4.316064 3.785858 -3.323823 -23.556955 28.183860 -13.248899 -93.808215 26.147347 44.768069 -11.701547 0.278580 -36.583934 -1.267998 -6.677032 -3.048263 -13.555227 4.525259 -2.162054 -77.242691 7.396926 -18.113820 -22.650963 10.892375 23.223470 -45.930946 5.177432 -1.502287 73.259960 -2.540315 -3.789719 15.919665 5.338236 7.366724 -1.793701 0.051906 0.621220 -42.331354 -3.352729 -4.941003 78.607390 5.574342 0.159096 -13.111205 -9.418317 -2.456250 -0.903528 0.016187 -0.397704
0.0 0.0 0.0 -148.846255 -1.791109 -179.568965 19.791578 0.774962 3.613032 3.108905 1.286663 1.167714 4.847382 0.197766 0.868738 16.586421 1.153249 2.186024 14.161513 -0.145051 -3.871328 -4.939510 3.517715 -4.618176 -4.367010 3.789663 -3.354407 -23.620867 28.228421 -13.253880 -94.296383 26.180499 44.933014 -11.722218 0.449324 -36.639034 -1.300816 -6.647773 -3.049341 -13.603961 4.648444 -2.154258 -77.542017 7.462876 -18.045916 -22.732886 10.922090 23.342945 -45.947420 5.216373 -1.515186 73.222729 -2.531935 -3.795637 15.978408 5.372111 7.363134 -1.815478 0.063194 0.615995 -42.344355 -3.334365 -4.986208 78.562120 5.568264 0.173384 -13.136947 -9.444868 -2.457135 -0.918084 0.028387 -0.399616
0.0 0.0 0.0 -148.871473 -1.810990 -179.566630 19.816745 0.803454 3.649032 3.104952 1.315906 1.150612 4.843277 0.223904 0.853409 16.585393 1.175616 2.169358 14.161256 -0.119401 -3.848193 -4.944558 3.542503 -4.597765 -4.384578 3.814825 -3.332702 -23.663310 28.284151 -13.245882 -94.630338 26.234705 45.017592 -11.697320 0.557880 -36.720705 -1.330240 -6.619094 -3.064837 -13.614544 4.746924 -2.154471 -77.725627 7.488245 -17.974951 -22.795234 10.945095 23.468868 -45.952895 5.240722 -1.494263 73.203017 -2.484781 -3.779132 16.038401 5.410631 7.403736 -1.821159 0.083120 0.649058 -42.337368 -3.305608 -5.024733 78.543166 5.611113 0.208274 -13.147496 -9.451466 -2.472625 -0.918481 0.049977 -0.389793
0.0 0.0 0.0 -148.824494 -1.811400 -179.504379 19.846394 0.814897 3.611512 3.112333 1.346258 1.207307 4.857432 0.249041 0.907579 16.594737 1.209152 2.220554 14.172123 -0.108378 -3.903654 -4.935263 3.557386 -4.645836 -4.402181 3.826755 -3.393214 -23.687221 28.327137 -13.274805 -94.964034 26.232054 45.198480 -11.672588 0.634719 -36.742238 -1.328359 -6.590771 -3.019542 -13.619295 4.845236 -2.109474 -77.933155 7.561464 -17.961852 -22.838211 10.980688 23.538000 -45.952150 5.285313 -1.535686 73.169890 -2.480461 -3.822865 16.129374 5.464731 7.370852 -1.814275 0.098205 0.606799 -42.326744 -3.303591 -5.026474 78.513585 5.606726 0.177422 -13.150755 -9.476572 -2.435689 -0.905244 0.065417 -0.390753
0.0 0.0 0.0 -148.882087 -1.822591 -179.506647 19.821530 0.807124 3.646885 3.059883 1.337415 1.177124 4.809161 0.233449 0.876601 16.544397 1.187326 2.199043 14.121395 -0.127319 -3.904198 -4.978682 3.554987 -4.617329 -4.480600 3.811429 -3.388973 -23.763577 28.347069 -13.242174 -95.309095 26.251311 45.298238 -11.726125 0.714359 -36.816762 -1.376494 -6.591866 -3.062905 -13.688795 4.911476 -2.135176 -78.154781 7.611107 -17.880575 -22.927314 10.986870 23.656396 -45.987107 5.300926 -1.535991 73.137310 -2.488065 -3.799404 16.139022 5.473805 7.391258 -1.856103 0.094951 0.627120 -42.366769 -3.294489 -5.069691 78.473512 5.582668 0.216981 -13.203472 -9.501647 -2.457254 -0.943189 0.062644 -0.389216
0.0 0.0 0.0 -148.906976 -1.845501 -179.487222 19.857518 0.826568 3.669403 3.051231 1.376905 1.140988 4.816538 0.258026 0.849812 16.548148 1.213817 2.173436 14.115575 -0.100216 -3.924666 -4.983309 3.583045 -4.633039 -4.521564 3.834775 -3.410524 -23.847952 28.428912 -13.249244 -96.046919 26.321300 45.548503 -11.733010 0.941471 -36.911203 -1.411383 -6.543008 -3.095561 -13.739590 5.109478 -2.132237 -78.602411 7.696448 -17.765107 -23.037899 11.027953 23.878794 -45.989559 5.351816 -1.537522 73.108446 -2.442177 -3.806922 16.263562 5.548923 7.415072 -1.863779 0.120361 0.637535 -42.350455 -3.254315 -5.163369 78.429642 5.615488 0.247366 -13.219437 -9.535740 -2.495242 -0.938267 0.089241 -0.399298
0.0 0.0 0.0 -148.867784 -1.844747 -179.433823 19.913200 0.829035 3.655321 3.069037 1.389128 1.166493 4.847179 0.262275 0.879532 16.575991 1.224638 2.200722 14.135150 -0.103967 -3.980498 -4.960457 3.581698 -4.669236 -4.513593 3.830499 -3.465162 -23.880042 28.463210 -13.273813 -96.639397 26.289547 45.760772 -11.713357 1.103441 -36.952242 -1.389030 -6.532448 -3.073199 -13.739518 5.219716 -2.115051 -78.992169 7.751377 -17.735308 -23.094937 11.072511 24.016127 -45.976479 5.378005 -1.576994 73.083516 -2.430192 -3.849690 16.376944 5.570047 7.399798 -1.841672 0.124135 0.613844 -42.329462 -3.269410 -5.202918 78.395463 5.612110 0.224362 -13.204596 -9.586365 -2.470727 -0.906978 0.092686 -0.398649
0.0 0.0 0.0 -148.862580 -1.848849 -179.408743 19.940843 0.853284 3.652523 3.064577 1.425544 1.171318 4.854944 0.294080 0.886562 16.576598 1.256705 2.199414 14.139254 -0.085177 -4.002671 -4.956654 3.611152 -4.690109 -4.545818 3.864262 -3.487662 -23.931128 28.519653 -13.270491 -97.069733 26.297700 45.941194 -11.689313 1.216566 -37.001361 -1.397596 -6.492697 -3.066730 -13.775377 5.337266 -2.103657 -79.256026 7.806233 -17.702397 -23.154992 11.098397 24.143790 -45.975117 5.418575 -1.585023 73.063708 -2.395843 -3.859310 16.452502 5.630852 7.394911 -1.837116 0.149356 0.608320 -42.318373 -3.238262 -5.242907 78.374672 5.632583 0.230469 -13.207620 -9.599905 -2.473790 -0.897108 0.119628 -0.400548
0.0 0.0 0.0 -148.868030 -1.865502 -179.381764 19.963055 0.862060 3.650378 3.058071 1.454102 1.164435 4.854922 0.317850 0.890199 16.580914 1.280793 2.191750 14.140532 -0.068352 -4.028072 -4.956917 3.638242 -4.726905 -4.571960 3.892788 -3.516342 -23.998300 28.609130 -13.296114 -97.566390 26.361419 46.152189 -11.692642 1.352012 -37.088699 -1.407672 -6.457107 -3.058001 -13.806571 5.465402 -2.093600 -79.536501 7.840253 -17.645440 -23.245606 11.111410 24.294189 -45.979734 5.460772 -1.584958 73.023560 -2.365973 -3.877094 16.555988 5.681436 7.402644 -1.839468 0.165992 0.602305 -42.305362 -3.205703 -5.298949 78.332393 5.647040 0.242178 -13.216711 -9.627318 -2.486454 -0.892012 0.137469 -0.407749
